<svg xmlns="http://www.w3.org/2000/svg" width="1920" height="1080"><path d="M954,540L950,629L1069,598Z" fill="#b6b6b6" stroke="#b6b6b6" stroke-width="1.51"/><path d="M950,629L998,672L1069,598Z" fill="#b1b1b1" stroke="#b1b1b1" stroke-width="1.51"/><path d="M1069,598L1073,440L954,540Z" fill="#b7b7b7" stroke="#b7b7b7" stroke-width="1.51"/><path d="M954,540L871,440L950,629Z" fill="#bcbcbc" stroke="#bcbcbc" stroke-width="1.51"/><path d="M1073,440L871,440L954,540Z" fill="#bdbdbd" stroke="#bdbdbd" stroke-width="1.51"/><path d="M998,672L1096,797L1069,598Z" fill="#ababab" stroke="#ababab" stroke-width="1.51"/><path d="M1069,598L1257,482L1073,440Z" fill="#b3b3b3" stroke="#b3b3b3" stroke-width="1.51"/><path d="M817,866L1096,797L998,672Z" fill="#a8a8a8" stroke="#a8a8a8" stroke-width="1.51"/><path d="M1096,797L1230,666L1069,598Z" fill="#a7a7a7" stroke="#a7a7a7" stroke-width="1.51"/><path d="M1230,666L1257,482L1069,598Z" fill="#acacac" stroke="#acacac" stroke-width="1.51"/><path d="M1096,797L1129,833L1230,666Z" fill="#a0a0a0" stroke="#a0a0a0" stroke-width="1.51"/><path d="M1257,482L1190,361L1073,440Z" fill="#b4b4b4" stroke="#b4b4b4" stroke-width="1.51"/><path d="M1073,440L970,271L871,440Z" fill="#c0c0c0" stroke="#c0c0c0" stroke-width="1.51"/><path d="M871,440L658,526L950,629Z" fill="#bfbfbf" stroke="#bfbfbf" stroke-width="1.51"/><path d="M950,629L817,866L998,672Z" fill="#aeaeae" stroke="#aeaeae" stroke-width="1.51"/><path d="M1096,797L1048,970L1129,833Z" fill="#9c9c9c" stroke="#9c9c9c" stroke-width="1.51"/><path d="M829,170L740,429L871,440Z" fill="#c6c6c6" stroke="#c6c6c6" stroke-width="1.51"/><path d="M1190,361L970,271L1073,440Z" fill="#bcbcbc" stroke="#bcbcbc" stroke-width="1.51"/><path d="M658,526L731,767L950,629Z" fill="#b8b8b8" stroke="#b8b8b8" stroke-width="1.51"/><path d="M731,767L817,866L950,629Z" fill="#aeaeae" stroke="#aeaeae" stroke-width="1.51"/><path d="M1230,666L1332,519L1257,482Z" fill="#aaaaaa" stroke="#aaaaaa" stroke-width="1.51"/><path d="M1257,482L1333,391L1190,361Z" fill="#b0b0b0" stroke="#b0b0b0" stroke-width="1.51"/><path d="M1412,769L1332,519L1230,666Z" fill="#a0a0a0" stroke="#a0a0a0" stroke-width="1.51"/><path d="M740,429L658,526L871,440Z" fill="#c3c3c3" stroke="#c3c3c3" stroke-width="1.51"/><path d="M731,767L726,833L817,866Z" fill="#ababab" stroke="#ababab" stroke-width="1.51"/><path d="M523,811L726,833L731,767Z" fill="#afafaf" stroke="#afafaf" stroke-width="1.51"/><path d="M1190,361L1207,224L970,271Z" fill="#bcbcbc" stroke="#bcbcbc" stroke-width="1.51"/><path d="M1332,519L1333,391L1257,482Z" fill="#acacac" stroke="#acacac" stroke-width="1.51"/><path d="M817,866L1048,970L1096,797Z" fill="#a0a0a0" stroke="#a0a0a0" stroke-width="1.51"/><path d="M1129,833L1319,855L1230,666Z" fill="#9b9b9b" stroke="#9b9b9b" stroke-width="1.51"/><path d="M949,1064L1048,970L817,866Z" fill="#9b9b9b" stroke="#9b9b9b" stroke-width="1.51"/><path d="M1190,1019L1319,855L1129,833Z" fill="#939393" stroke="#939393" stroke-width="1.51"/><path d="M1317,216L1207,224L1190,361Z" fill="#b7b7b7" stroke="#b7b7b7" stroke-width="1.51"/><path d="M658,526L579,666L731,767Z" fill="#bababa" stroke="#bababa" stroke-width="1.51"/><path d="M1319,855L1412,769L1230,666Z" fill="#989898" stroke="#989898" stroke-width="1.51"/><path d="M1332,519L1454,475L1333,391Z" fill="#a9a9a9" stroke="#a9a9a9" stroke-width="1.51"/><path d="M970,271L829,170L871,440Z" fill="#c6c6c6" stroke="#c6c6c6" stroke-width="1.51"/><path d="M560,323L547,561L658,526Z" fill="#c7c7c7" stroke="#c7c7c7" stroke-width="1.51"/><path d="M658,526L547,561L579,666Z" fill="#c1c1c1" stroke="#c1c1c1" stroke-width="1.51"/><path d="M1071,109L829,170L970,271Z" fill="#c9c9c9" stroke="#c9c9c9" stroke-width="1.51"/><path d="M560,323L658,526L740,429Z" fill="#c8c8c8" stroke="#c8c8c8" stroke-width="1.51"/><path d="M1207,224L1151,147L970,271Z" fill="#c0c0c0" stroke="#c0c0c0" stroke-width="1.51"/><path d="M1317,216L1151,147L1207,224Z" fill="#bbbbbb" stroke="#bbbbbb" stroke-width="1.51"/><path d="M1412,769L1454,475L1332,519Z" fill="#a1a1a1" stroke="#a1a1a1" stroke-width="1.51"/><path d="M1333,391L1317,216L1190,361Z" fill="#b3b3b3" stroke="#b3b3b3" stroke-width="1.51"/><path d="M1048,970L1190,1019L1129,833Z" fill="#959595" stroke="#959595" stroke-width="1.51"/><path d="M1505,977L1491,764L1412,769Z" fill="#8b8b8b" stroke="#8b8b8b" stroke-width="1.51"/><path d="M829,170L750,180L740,429Z" fill="#cbcbcb" stroke="#cbcbcb" stroke-width="1.51"/><path d="M1048,970L1011,1103L1190,1019Z" fill="#909090" stroke="#909090" stroke-width="1.51"/><path d="M716,990L949,1064L817,866Z" fill="#9e9e9e" stroke="#9e9e9e" stroke-width="1.51"/><path d="M1151,147L1071,109L970,271Z" fill="#c4c4c4" stroke="#c4c4c4" stroke-width="1.51"/><path d="M814,53L710,135L750,180Z" fill="#d1d1d1" stroke="#d1d1d1" stroke-width="1.51"/><path d="M1469,437L1317,216L1333,391Z" fill="#adadad" stroke="#adadad" stroke-width="1.51"/><path d="M1196,-97L1049,-46L1071,109Z" fill="#c9c9c9" stroke="#c9c9c9" stroke-width="1.51"/><path d="M1454,475L1469,437L1333,391Z" fill="#a7a7a7" stroke="#a7a7a7" stroke-width="1.51"/><path d="M1664,581L1469,437L1454,475Z" fill="#9f9f9f" stroke="#9f9f9f" stroke-width="1.51"/><path d="M726,833L716,990L817,866Z" fill="#a5a5a5" stroke="#a5a5a5" stroke-width="1.51"/><path d="M604,962L716,990L726,833Z" fill="#a5a5a5" stroke="#a5a5a5" stroke-width="1.51"/><path d="M750,180L560,323L740,429Z" fill="#cbcbcb" stroke="#cbcbcb" stroke-width="1.51"/><path d="M949,1064L1011,1103L1048,970Z" fill="#939393" stroke="#939393" stroke-width="1.51"/><path d="M906,1189L1011,1103L949,1064Z" fill="#909090" stroke="#909090" stroke-width="1.51"/><path d="M1412,769L1491,764L1454,475Z" fill="#989898" stroke="#989898" stroke-width="1.51"/><path d="M1531,774L1491,764L1505,977Z" fill="#898989" stroke="#898989" stroke-width="1.51"/><path d="M579,666L523,811L731,767Z" fill="#b5b5b5" stroke="#b5b5b5" stroke-width="1.51"/><path d="M402,689L523,811L579,666Z" fill="#bababa" stroke="#bababa" stroke-width="1.51"/><path d="M402,689L579,666L547,561Z" fill="#bfbfbf" stroke="#bfbfbf" stroke-width="1.51"/><path d="M750,180L540,194L560,323Z" fill="#d0d0d0" stroke="#d0d0d0" stroke-width="1.51"/><path d="M814,53L750,180L829,170Z" fill="#cfcfcf" stroke="#cfcfcf" stroke-width="1.51"/><path d="M523,811L604,962L726,833Z" fill="#ababab" stroke="#ababab" stroke-width="1.51"/><path d="M768,1150L906,1189L949,1064Z" fill="#919191" stroke="#919191" stroke-width="1.51"/><path d="M1190,1019L1269,1076L1319,855Z" fill="#8b8b8b" stroke="#8b8b8b" stroke-width="1.51"/><path d="M1198,1135L1269,1076L1190,1019Z" fill="#868686" stroke="#868686" stroke-width="1.51"/><path d="M1491,764L1664,581L1454,475Z" fill="#999999" stroke="#999999" stroke-width="1.51"/><path d="M1505,977L1412,769L1319,855Z" fill="#8c8c8c" stroke="#8c8c8c" stroke-width="1.51"/><path d="M1071,109L814,53L829,170Z" fill="#cdcdcd" stroke="#cdcdcd" stroke-width="1.51"/><path d="M1011,1103L1198,1135L1190,1019Z" fill="#8a8a8a" stroke="#8a8a8a" stroke-width="1.51"/><path d="M1198,1135L1316,1079L1269,1076Z" fill="#838383" stroke="#838383" stroke-width="1.51"/><path d="M1269,1076L1316,1079L1319,855Z" fill="#878787" stroke="#878787" stroke-width="1.51"/><path d="M354,579L402,689L547,561Z" fill="#c4c4c4" stroke="#c4c4c4" stroke-width="1.51"/><path d="M710,135L540,194L750,180Z" fill="#d1d1d1" stroke="#d1d1d1" stroke-width="1.51"/><path d="M561,37L540,194L710,135Z" fill="#d5d5d5" stroke="#d5d5d5" stroke-width="1.51"/><path d="M354,579L547,561L358,395Z" fill="#cacaca" stroke="#cacaca" stroke-width="1.51"/><path d="M523,811L447,910L604,962Z" fill="#acacac" stroke="#acacac" stroke-width="1.51"/><path d="M1011,1103L1009,1257L1198,1135Z" fill="#878787" stroke="#878787" stroke-width="1.51"/><path d="M768,1150L949,1064L716,990Z" fill="#979797" stroke="#979797" stroke-width="1.51"/><path d="M610,1175L768,1150L716,990Z" fill="#989898" stroke="#989898" stroke-width="1.51"/><path d="M1071,109L1049,-46L814,53Z" fill="#cecece" stroke="#cecece" stroke-width="1.51"/><path d="M1196,-97L1071,109L1151,147Z" fill="#c5c5c5" stroke="#c5c5c5" stroke-width="1.51"/><path d="M1316,1079L1505,977L1319,855Z" fill="#868686" stroke="#868686" stroke-width="1.51"/><path d="M604,962L610,1175L716,990Z" fill="#9e9e9e" stroke="#9e9e9e" stroke-width="1.51"/><path d="M344,843L447,910L523,811Z" fill="#b1b1b1" stroke="#b1b1b1" stroke-width="1.51"/><path d="M358,395L547,561L560,323Z" fill="#cccccc" stroke="#cccccc" stroke-width="1.51"/><path d="M402,689L344,843L523,811Z" fill="#b7b7b7" stroke="#b7b7b7" stroke-width="1.51"/><path d="M1317,216L1406,66L1151,147Z" fill="#b9b9b9" stroke="#b9b9b9" stroke-width="1.51"/><path d="M1569,169L1406,66L1317,216Z" fill="#b2b2b2" stroke="#b2b2b2" stroke-width="1.51"/><path d="M1569,169L1317,216L1469,437Z" fill="#acacac" stroke="#acacac" stroke-width="1.51"/><path d="M1531,774L1664,581L1491,764Z" fill="#909090" stroke="#909090" stroke-width="1.51"/><path d="M1694,666L1664,581L1531,774Z" fill="#8f8f8f" stroke="#8f8f8f" stroke-width="1.51"/><path d="M906,1189L1009,1257L1011,1103Z" fill="#8a8a8a" stroke="#8a8a8a" stroke-width="1.51"/><path d="M1342,1295L1443,1145L1316,1079Z" fill="#787878" stroke="#787878" stroke-width="1.51"/><path d="M1316,1079L1443,1145L1505,977Z" fill="#7d7d7d" stroke="#7d7d7d" stroke-width="1.51"/><path d="M839,1318L1009,1257L906,1189Z" fill="#878787" stroke="#878787" stroke-width="1.51"/><path d="M427,201L358,395L560,323Z" fill="#d2d2d2" stroke="#d2d2d2" stroke-width="1.51"/><path d="M540,194L427,201L560,323Z" fill="#d3d3d3" stroke="#d3d3d3" stroke-width="1.51"/><path d="M388,51L427,201L540,194Z" fill="#d8d8d8" stroke="#d8d8d8" stroke-width="1.51"/><path d="M561,37L710,135L655,-48Z" fill="#d7d7d7" stroke="#d7d7d7" stroke-width="1.51"/><path d="M1646,865L1694,666L1531,774Z" fill="#888888" stroke="#888888" stroke-width="1.51"/><path d="M1505,977L1646,865L1531,774Z" fill="#848484" stroke="#848484" stroke-width="1.51"/><path d="M1049,-46L826,-93L814,53Z" fill="#d3d3d3" stroke="#d3d3d3" stroke-width="1.51"/><path d="M1704,318L1469,437L1761,427Z" fill="#9d9d9d" stroke="#9d9d9d" stroke-width="1.51"/><path d="M1704,318L1569,169L1469,437Z" fill="#a4a4a4" stroke="#a4a4a4" stroke-width="1.51"/><path d="M655,-48L710,135L814,53Z" fill="#d5d5d5" stroke="#d5d5d5" stroke-width="1.51"/><path d="M358,395L230,594L354,579Z" fill="#cdcdcd" stroke="#cdcdcd" stroke-width="1.51"/><path d="M427,201L331,368L358,395Z" fill="#d3d3d3" stroke="#d3d3d3" stroke-width="1.51"/><path d="M292,667L402,689L354,579Z" fill="#c3c3c3" stroke="#c3c3c3" stroke-width="1.51"/><path d="M292,667L344,843L402,689Z" fill="#bdbdbd" stroke="#bdbdbd" stroke-width="1.51"/><path d="M476,1153L610,1175L604,962Z" fill="#9c9c9c" stroke="#9c9c9c" stroke-width="1.51"/><path d="M768,1150L839,1318L906,1189Z" fill="#8c8c8c" stroke="#8c8c8c" stroke-width="1.51"/><path d="M439,1063L604,962L447,910Z" fill="#a6a6a6" stroke="#a6a6a6" stroke-width="1.51"/><path d="M1578,49L1433,22L1406,66Z" fill="#b3b3b3" stroke="#b3b3b3" stroke-width="1.51"/><path d="M1370,-31L1196,-97L1151,147Z" fill="#c1c1c1" stroke="#c1c1c1" stroke-width="1.51"/><path d="M1049,-46L947,-238L826,-93Z" fill="#d6d6d6" stroke="#d6d6d6" stroke-width="1.51"/><path d="M1370,-31L1151,147L1406,66Z" fill="#bbbbbb" stroke="#bbbbbb" stroke-width="1.51"/><path d="M1505,977L1702,1070L1646,865Z" fill="#7a7a7a" stroke="#7a7a7a" stroke-width="1.51"/><path d="M1342,1295L1316,1079L1198,1135Z" fill="#7c7c7c" stroke="#7c7c7c" stroke-width="1.51"/><path d="M230,594L292,667L354,579Z" fill="#c7c7c7" stroke="#c7c7c7" stroke-width="1.51"/><path d="M1433,22L1370,-31L1406,66Z" fill="#b8b8b8" stroke="#b8b8b8" stroke-width="1.51"/><path d="M826,-93L655,-48L814,53Z" fill="#d7d7d7" stroke="#d7d7d7" stroke-width="1.51"/><path d="M316,1021L439,1063L447,910Z" fill="#a7a7a7" stroke="#a7a7a7" stroke-width="1.51"/><path d="M687,1378L839,1318L768,1150Z" fill="#898989" stroke="#898989" stroke-width="1.51"/><path d="M1009,1257L1207,1328L1198,1135Z" fill="#7f7f7f" stroke="#7f7f7f" stroke-width="1.51"/><path d="M1761,427L1469,437L1664,581Z" fill="#9b9b9b" stroke="#9b9b9b" stroke-width="1.51"/><path d="M1694,666L1774,562L1664,581Z" fill="#909090" stroke="#909090" stroke-width="1.51"/><path d="M1646,865L1745,769L1694,666Z" fill="#858585" stroke="#858585" stroke-width="1.51"/><path d="M1762,781L1745,769L1646,865Z" fill="#818181" stroke="#818181" stroke-width="1.51"/><path d="M1370,-31L1403,-211L1196,-97Z" fill="#c2c2c2" stroke="#c2c2c2" stroke-width="1.51"/><path d="M1433,22L1423,-53L1370,-31Z" fill="#b9b9b9" stroke="#b9b9b9" stroke-width="1.51"/><path d="M1578,49L1423,-53L1433,22Z" fill="#b5b5b5" stroke="#b5b5b5" stroke-width="1.51"/><path d="M1578,49L1406,66L1569,169Z" fill="#afafaf" stroke="#afafaf" stroke-width="1.51"/><path d="M1704,318L1683,231L1569,169Z" fill="#a3a3a3" stroke="#a3a3a3" stroke-width="1.51"/><path d="M427,201L330,216L331,368Z" fill="#d6d6d6" stroke="#d6d6d6" stroke-width="1.51"/><path d="M153,511L230,594L358,395Z" fill="#d0d0d0" stroke="#d0d0d0" stroke-width="1.51"/><path d="M388,51L330,216L427,201Z" fill="#dadada" stroke="#dadada" stroke-width="1.51"/><path d="M388,51L540,194L561,37Z" fill="#d9d9d9" stroke="#d9d9d9" stroke-width="1.51"/><path d="M839,1318L1207,1328L1009,1257Z" fill="#808080" stroke="#808080" stroke-width="1.51"/><path d="M1704,318L1824,228L1683,231Z" fill="#9e9e9e" stroke="#9e9e9e" stroke-width="1.51"/><path d="M1745,769L1774,562L1694,666Z" fill="#8a8a8a" stroke="#8a8a8a" stroke-width="1.51"/><path d="M433,1241L476,1153L246,1131Z" fill="#9b9b9b" stroke="#9b9b9b" stroke-width="1.51"/><path d="M292,667L119,727L344,843Z" fill="#bebebe" stroke="#bebebe" stroke-width="1.51"/><path d="M153,511L358,395L331,368Z" fill="#d2d2d2" stroke="#d2d2d2" stroke-width="1.51"/><path d="M439,1063L476,1153L604,962Z" fill="#a0a0a0" stroke="#a0a0a0" stroke-width="1.51"/><path d="M610,1175L687,1378L768,1150Z" fill="#8f8f8f" stroke="#8f8f8f" stroke-width="1.51"/><path d="M316,1021L447,910L344,843Z" fill="#adadad" stroke="#adadad" stroke-width="1.51"/><path d="M1774,562L1761,427L1664,581Z" fill="#949494" stroke="#949494" stroke-width="1.51"/><path d="M1745,769L1889,765L1774,562Z" fill="#848484" stroke="#848484" stroke-width="1.51"/><path d="M1886,830L1762,781L1836,1021Z" fill="#777777" stroke="#777777" stroke-width="1.51"/><path d="M1207,1328L1342,1295L1198,1135Z" fill="#787878" stroke="#787878" stroke-width="1.51"/><path d="M1620,1190L1702,1070L1505,977Z" fill="#737373" stroke="#737373" stroke-width="1.51"/><path d="M1683,231L1578,49L1569,169Z" fill="#a8a8a8" stroke="#a8a8a8" stroke-width="1.51"/><path d="M1403,-211L1123,-194L1196,-97Z" fill="#c8c8c8" stroke="#c8c8c8" stroke-width="1.51"/><path d="M1196,-97L1123,-194L1049,-46Z" fill="#cccccc" stroke="#cccccc" stroke-width="1.51"/><path d="M760,-217L589,-95L655,-48Z" fill="#dddddd" stroke="#dddddd" stroke-width="1.51"/><path d="M1123,-194L1076,-200L1049,-46Z" fill="#cfcfcf" stroke="#cfcfcf" stroke-width="1.51"/><path d="M655,-48L589,-95L561,37Z" fill="#dbdbdb" stroke="#dbdbdb" stroke-width="1.51"/><path d="M760,-217L655,-48L826,-93Z" fill="#dbdbdb" stroke="#dbdbdb" stroke-width="1.51"/><path d="M61,834L316,1021L344,843Z" fill="#b3b3b3" stroke="#b3b3b3" stroke-width="1.51"/><path d="M362,-47L388,51L561,37Z" fill="#dedede" stroke="#dedede" stroke-width="1.51"/><path d="M1076,-200L947,-238L1049,-46Z" fill="#d3d3d3" stroke="#d3d3d3" stroke-width="1.51"/><path d="M1123,-194L947,-238L1076,-200Z" fill="#d4d4d4" stroke="#d4d4d4" stroke-width="1.51"/><path d="M947,-238L760,-217L826,-93Z" fill="#dbdbdb" stroke="#dbdbdb" stroke-width="1.51"/><path d="M1620,1190L1505,977L1443,1145Z" fill="#757575" stroke="#757575" stroke-width="1.51"/><path d="M839,1318L687,1378L1207,1328Z" fill="#828282" stroke="#828282" stroke-width="1.51"/><path d="M577,1348L687,1378L610,1175Z" fill="#8b8b8b" stroke="#8b8b8b" stroke-width="1.51"/><path d="M433,1241L610,1175L476,1153Z" fill="#979797" stroke="#979797" stroke-width="1.51"/><path d="M128,433L331,368L127,237Z" fill="#d7d7d7" stroke="#d7d7d7" stroke-width="1.51"/><path d="M128,433L153,511L331,368Z" fill="#d3d3d3" stroke="#d3d3d3" stroke-width="1.51"/><path d="M230,594L119,727L292,667Z" fill="#c6c6c6" stroke="#c6c6c6" stroke-width="1.51"/><path d="M1549,1280L1620,1190L1443,1145Z" fill="#6e6e6e" stroke="#6e6e6e" stroke-width="1.51"/><path d="M246,1131L476,1153L439,1063Z" fill="#9f9f9f" stroke="#9f9f9f" stroke-width="1.51"/><path d="M433,1241L577,1348L610,1175Z" fill="#919191" stroke="#919191" stroke-width="1.51"/><path d="M760,-217L541,-159L589,-95Z" fill="#e0e0e0" stroke="#e0e0e0" stroke-width="1.51"/><path d="M589,-95L362,-47L561,37Z" fill="#dedede" stroke="#dedede" stroke-width="1.51"/><path d="M1716,1372L1549,1280L1342,1295Z" fill="#666666" stroke="#666666" stroke-width="1.51"/><path d="M1342,1295L1549,1280L1443,1145Z" fill="#707070" stroke="#707070" stroke-width="1.51"/><path d="M153,511L119,727L230,594Z" fill="#cbcbcb" stroke="#cbcbcb" stroke-width="1.51"/><path d="M127,237L331,368L330,216Z" fill="#d8d8d8" stroke="#d8d8d8" stroke-width="1.51"/><path d="M1423,-53L1403,-211L1370,-31Z" fill="#bdbdbd" stroke="#bdbdbd" stroke-width="1.51"/><path d="M1123,-194L1403,-211L947,-238Z" fill="#cfcfcf" stroke="#cfcfcf" stroke-width="1.51"/><path d="M1487,-223L1403,-211L1423,-53Z" fill="#bdbdbd" stroke="#bdbdbd" stroke-width="1.51"/><path d="M388,51L262,86L330,216Z" fill="#dddddd" stroke="#dddddd" stroke-width="1.51"/><path d="M326,-50L262,86L388,51Z" fill="#e1e1e1" stroke="#e1e1e1" stroke-width="1.51"/><path d="M-13,750L119,727L-35,513Z" fill="#cacaca" stroke="#cacaca" stroke-width="1.51"/><path d="M316,1021L246,1131L439,1063Z" fill="#a4a4a4" stroke="#a4a4a4" stroke-width="1.51"/><path d="M1578,49L1487,-223L1423,-53Z" fill="#b7b7b7" stroke="#b7b7b7" stroke-width="1.51"/><path d="M1683,231L1740,-41L1578,49Z" fill="#a8a8a8" stroke="#a8a8a8" stroke-width="1.51"/><path d="M1761,427L1824,228L1704,318Z" fill="#9a9a9a" stroke="#9a9a9a" stroke-width="1.51"/><path d="M1944,326L1824,228L1761,427Z" fill="#969696" stroke="#969696" stroke-width="1.51"/><path d="M1944,326L1761,427L1983,614Z" fill="#8e8e8e" stroke="#8e8e8e" stroke-width="1.51"/><path d="M412,-153L362,-47L589,-95Z" fill="#e2e2e2" stroke="#e2e2e2" stroke-width="1.51"/><path d="M1762,781L1889,765L1745,769Z" fill="#7f7f7f" stroke="#7f7f7f" stroke-width="1.51"/><path d="M1886,830L1889,765L1762,781Z" fill="#7c7c7c" stroke="#7c7c7c" stroke-width="1.51"/><path d="M1836,1021L1646,865L1702,1070Z" fill="#747474" stroke="#747474" stroke-width="1.51"/><path d="M1836,1021L1762,781L1646,865Z" fill="#797979" stroke="#797979" stroke-width="1.51"/><path d="M362,-47L326,-50L388,51Z" fill="#e1e1e1" stroke="#e1e1e1" stroke-width="1.51"/><path d="M412,-153L326,-50L362,-47Z" fill="#e4e4e4" stroke="#e4e4e4" stroke-width="1.51"/><path d="M433,1241L330,1336L577,1348Z" fill="#8f8f8f" stroke="#8f8f8f" stroke-width="1.51"/><path d="M94,1072L246,1131L316,1021Z" fill="#a7a7a7" stroke="#a7a7a7" stroke-width="1.51"/><path d="M1801,1174L1836,1021L1702,1070Z" fill="#6a6a6a" stroke="#6a6a6a" stroke-width="1.51"/><path d="M1801,1174L1702,1070L1620,1190Z" fill="#6a6a6a" stroke="#6a6a6a" stroke-width="1.51"/><path d="M28,860L61,834L-13,750Z" fill="#bfbfbf" stroke="#bfbfbf" stroke-width="1.51"/><path d="M262,86L127,237L330,216Z" fill="#dddddd" stroke="#dddddd" stroke-width="1.51"/><path d="M68,19L127,237L262,86Z" fill="#e2e2e2" stroke="#e2e2e2" stroke-width="1.51"/><path d="M1403,-211L1644,-292L947,-238Z" fill="#c6c6c6" stroke="#c6c6c6" stroke-width="1.51"/><path d="M1725,-106L1487,-223L1578,49Z" fill="#b3b3b3" stroke="#b3b3b3" stroke-width="1.51"/><path d="M204,-200L412,-153L541,-159Z" fill="#e7e7e7" stroke="#e7e7e7" stroke-width="1.51"/><path d="M541,-159L412,-153L589,-95Z" fill="#e2e2e2" stroke="#e2e2e2" stroke-width="1.51"/><path d="M1857,70L1740,-41L1683,231Z" fill="#a3a3a3" stroke="#a3a3a3" stroke-width="1.51"/><path d="M1981,1116L1885,996L1836,1021Z" fill="#676767" stroke="#676767" stroke-width="1.51"/><path d="M1836,1021L1885,996L1886,830Z" fill="#707070" stroke="#707070" stroke-width="1.51"/><path d="M2080,733L1983,614L1889,765Z" fill="#7b7b7b" stroke="#7b7b7b" stroke-width="1.51"/><path d="M119,727L61,834L344,843Z" fill="#bcbcbc" stroke="#bcbcbc" stroke-width="1.51"/><path d="M61,834L119,727L-13,750Z" fill="#c2c2c2" stroke="#c2c2c2" stroke-width="1.51"/><path d="M1983,614L1774,562L1889,765Z" fill="#858585" stroke="#858585" stroke-width="1.51"/><path d="M1983,614L1761,427L1774,562Z" fill="#8e8e8e" stroke="#8e8e8e" stroke-width="1.51"/><path d="M1824,228L1857,70L1683,231Z" fill="#9e9e9e" stroke="#9e9e9e" stroke-width="1.51"/><path d="M2080,733L1889,765L2052,887Z" fill="#747474" stroke="#747474" stroke-width="1.51"/><path d="M1794,1250L1801,1174L1620,1190Z" fill="#646464" stroke="#646464" stroke-width="1.51"/><path d="M2038,96L1857,70L1824,228Z" fill="#9a9a9a" stroke="#9a9a9a" stroke-width="1.51"/><path d="M1764,-182L1725,-106L1909,-117Z" fill="#a9a9a9" stroke="#a9a9a9" stroke-width="1.51"/><path d="M1740,-41L1725,-106L1578,49Z" fill="#acacac" stroke="#acacac" stroke-width="1.51"/><path d="M246,1131L330,1336L433,1241Z" fill="#979797" stroke="#979797" stroke-width="1.51"/><path d="M577,1348L330,1336L687,1378Z" fill="#8a8a8a" stroke="#8a8a8a" stroke-width="1.51"/><path d="M173,1171L330,1336L246,1131Z" fill="#9b9b9b" stroke="#9b9b9b" stroke-width="1.51"/><path d="M61,834L94,1072L316,1021Z" fill="#afafaf" stroke="#afafaf" stroke-width="1.51"/><path d="M119,727L153,511L-35,513Z" fill="#cfcfcf" stroke="#cfcfcf" stroke-width="1.51"/><path d="M94,1072L173,1171L246,1131Z" fill="#a4a4a4" stroke="#a4a4a4" stroke-width="1.51"/><path d="M-35,513L153,511L128,433Z" fill="#d5d5d5" stroke="#d5d5d5" stroke-width="1.51"/><path d="M106,1240L94,1072L-53,1112Z" fill="#a6a6a6" stroke="#a6a6a6" stroke-width="1.51"/><path d="M28,860L94,1072L61,834Z" fill="#b6b6b6" stroke="#b6b6b6" stroke-width="1.51"/><path d="M1716,1372L1794,1250L1620,1190Z" fill="#616161" stroke="#616161" stroke-width="1.51"/><path d="M1981,1116L2052,887L1885,996Z" fill="#676767" stroke="#676767" stroke-width="1.51"/><path d="M1716,1372L1620,1190L1549,1280Z" fill="#646464" stroke="#646464" stroke-width="1.51"/><path d="M-31,396L-35,513L128,433Z" fill="#d8d8d8" stroke="#d8d8d8" stroke-width="1.51"/><path d="M127,237L-31,396L128,433Z" fill="#dbdbdb" stroke="#dbdbdb" stroke-width="1.51"/><path d="M-69,293L-31,396L127,237Z" fill="#dedede" stroke="#dedede" stroke-width="1.51"/><path d="M687,1378L1716,1372L1207,1328Z" fill="#737373" stroke="#737373" stroke-width="1.51"/><path d="M1207,1328L1716,1372L1342,1295Z" fill="#6b6b6b" stroke="#6b6b6b" stroke-width="1.51"/><path d="M1944,326L2034,295L1824,228Z" fill="#939393" stroke="#939393" stroke-width="1.51"/><path d="M2091,543L2036,337L1944,326Z" fill="#8a8a8a" stroke="#8a8a8a" stroke-width="1.51"/><path d="M2036,337L2034,295L1944,326Z" fill="#8e8e8e" stroke="#8e8e8e" stroke-width="1.51"/><path d="M1909,-117L1725,-106L1740,-41Z" fill="#a8a8a8" stroke="#a8a8a8" stroke-width="1.51"/><path d="M326,-50L187,-110L262,86Z" fill="#e4e4e4" stroke="#e4e4e4" stroke-width="1.51"/><path d="M204,-200L187,-110L326,-50Z" fill="#e9e9e9" stroke="#e9e9e9" stroke-width="1.51"/><path d="M1909,-117L1740,-41L1857,70Z" fill="#a4a4a4" stroke="#a4a4a4" stroke-width="1.51"/><path d="M1725,-106L1644,-292L1487,-223Z" fill="#b6b6b6" stroke="#b6b6b6" stroke-width="1.51"/><path d="M1983,614L2091,543L1944,326Z" fill="#888888" stroke="#888888" stroke-width="1.51"/><path d="M2198,239L2155,164L2034,295Z" fill="#8b8b8b" stroke="#8b8b8b" stroke-width="1.51"/><path d="M2052,887L1889,765L1886,830Z" fill="#747474" stroke="#747474" stroke-width="1.51"/><path d="M2052,887L1886,830L1885,996Z" fill="#6f6f6f" stroke="#6f6f6f" stroke-width="1.51"/><path d="M1487,-223L1644,-292L1403,-211Z" fill="#bdbdbd" stroke="#bdbdbd" stroke-width="1.51"/><path d="M1764,-182L1644,-292L1725,-106Z" fill="#b1b1b1" stroke="#b1b1b1" stroke-width="1.51"/><path d="M2080,733L2091,543L1983,614Z" fill="#7d7d7d" stroke="#7d7d7d" stroke-width="1.51"/><path d="M1981,1116L1801,1174L1946,1312Z" fill="#5c5c5c" stroke="#5c5c5c" stroke-width="1.51"/><path d="M1981,1116L1836,1021L1801,1174Z" fill="#656565" stroke="#656565" stroke-width="1.51"/><path d="M187,-110L68,19L262,86Z" fill="#e6e6e6" stroke="#e6e6e6" stroke-width="1.51"/><path d="M94,1072L106,1240L173,1171Z" fill="#a2a2a2" stroke="#a2a2a2" stroke-width="1.51"/><path d="M173,1171L106,1240L330,1336Z" fill="#9a9a9a" stroke="#9a9a9a" stroke-width="1.51"/><path d="M-66,982L94,1072L28,860Z" fill="#b4b4b4" stroke="#b4b4b4" stroke-width="1.51"/><path d="M-31,396L-138,421L-35,513Z" fill="#dbdbdb" stroke="#dbdbdb" stroke-width="1.51"/><path d="M-201,804L28,860L-13,750Z" fill="#c2c2c2" stroke="#c2c2c2" stroke-width="1.51"/><path d="M-41,19L-69,293L127,237Z" fill="#e3e3e3" stroke="#e3e3e3" stroke-width="1.51"/><path d="M1946,1312L1801,1174L1794,1250Z" fill="#5c5c5c" stroke="#5c5c5c" stroke-width="1.51"/><path d="M-36,-207L204,-200L-176,-240Z" fill="#f4f4f4" stroke="#f4f4f4" stroke-width="1.51"/><path d="M-176,-240L204,-200L760,-217Z" fill="#ececec" stroke="#ececec" stroke-width="1.51"/><path d="M760,-217L204,-200L541,-159Z" fill="#e5e5e5" stroke="#e5e5e5" stroke-width="1.51"/><path d="M412,-153L204,-200L326,-50Z" fill="#e7e7e7" stroke="#e7e7e7" stroke-width="1.51"/><path d="M187,-110L33,-66L68,19Z" fill="#eaeaea" stroke="#eaeaea" stroke-width="1.51"/><path d="M-201,804L-66,982L28,860Z" fill="#bdbdbd" stroke="#bdbdbd" stroke-width="1.51"/><path d="M-174,654L-13,750L-35,513Z" fill="#cfcfcf" stroke="#cfcfcf" stroke-width="1.51"/><path d="M2155,164L2038,96L2034,295Z" fill="#8f8f8f" stroke="#8f8f8f" stroke-width="1.51"/><path d="M2034,295L2038,96L1824,228Z" fill="#949494" stroke="#949494" stroke-width="1.51"/><path d="M2026,67L1909,-117L1857,70Z" fill="#9d9d9d" stroke="#9d9d9d" stroke-width="1.51"/><path d="M1764,-182L2005,-226L1644,-292Z" fill="#adadad" stroke="#adadad" stroke-width="1.51"/><path d="M2038,96L2026,67L1857,70Z" fill="#999999" stroke="#999999" stroke-width="1.51"/><path d="M-69,293L-138,421L-31,396Z" fill="#dedede" stroke="#dedede" stroke-width="1.51"/><path d="M-151,272L-138,421L-69,293Z" fill="#e1e1e1" stroke="#e1e1e1" stroke-width="1.51"/><path d="M68,19L-41,19L127,237Z" fill="#e6e6e6" stroke="#e6e6e6" stroke-width="1.51"/><path d="M73,-153L33,-66L187,-110Z" fill="#ececec" stroke="#ececec" stroke-width="1.51"/><path d="M-223,527L-174,654L-35,513Z" fill="#d7d7d7" stroke="#d7d7d7" stroke-width="1.51"/><path d="M-214,963L-53,1112L-66,982Z" fill="#b3b3b3" stroke="#b3b3b3" stroke-width="1.51"/><path d="M-66,982L-53,1112L94,1072Z" fill="#aeaeae" stroke="#aeaeae" stroke-width="1.51"/><path d="M204,-200L73,-153L187,-110Z" fill="#ededed" stroke="#ededed" stroke-width="1.51"/><path d="M-36,-207L-41,19L33,-66Z" fill="#efefef" stroke="#efefef" stroke-width="1.51"/><path d="M33,-66L-41,19L68,19Z" fill="#ebebeb" stroke="#ebebeb" stroke-width="1.51"/><path d="M1716,1372L1946,1312L1794,1250Z" fill="#595959" stroke="#595959" stroke-width="1.51"/><path d="M2297,849L2208,765L2052,887Z" fill="#686868" stroke="#686868" stroke-width="1.51"/><path d="M-138,421L-223,527L-35,513Z" fill="#dbdbdb" stroke="#dbdbdb" stroke-width="1.51"/><path d="M-178,112L-151,272L-69,293Z" fill="#e5e5e5" stroke="#e5e5e5" stroke-width="1.51"/><path d="M2052,887L2208,765L2080,733Z" fill="#6f6f6f" stroke="#6f6f6f" stroke-width="1.51"/><path d="M2080,733L2233,613L2091,543Z" fill="#797979" stroke="#797979" stroke-width="1.51"/><path d="M2198,239L2034,295L2036,337Z" fill="#8b8b8b" stroke="#8b8b8b" stroke-width="1.51"/><path d="M2153,1041L2052,887L1981,1116Z" fill="#626262" stroke="#626262" stroke-width="1.51"/><path d="M-174,654L-201,804L-13,750Z" fill="#cacaca" stroke="#cacaca" stroke-width="1.51"/><path d="M-223,527L-201,804L-174,654Z" fill="#d1d1d1" stroke="#d1d1d1" stroke-width="1.51"/><path d="M-151,272L-223,527L-138,421Z" fill="#dfdfdf" stroke="#dfdfdf" stroke-width="1.51"/><path d="M2198,239L2036,337L2269,425Z" fill="#858585" stroke="#858585" stroke-width="1.51"/><path d="M2038,96L2152,-26L2026,67Z" fill="#959595" stroke="#959595" stroke-width="1.51"/><path d="M2115,-205L2005,-226L1909,-117Z" fill="#a1a1a1" stroke="#a1a1a1" stroke-width="1.51"/><path d="M2208,765L2233,613L2080,733Z" fill="#727272" stroke="#727272" stroke-width="1.51"/><path d="M2151,1084L2153,1041L1981,1116Z" fill="#5c5c5c" stroke="#5c5c5c" stroke-width="1.51"/><path d="M2269,425L2036,337L2091,543Z" fill="#838383" stroke="#838383" stroke-width="1.51"/><path d="M-53,1112L-65,1238L106,1240Z" fill="#a3a3a3" stroke="#a3a3a3" stroke-width="1.51"/><path d="M106,1240L-65,1238L330,1336Z" fill="#9b9b9b" stroke="#9b9b9b" stroke-width="1.51"/><path d="M-255,1116L-65,1238L-53,1112Z" fill="#a9a9a9" stroke="#a9a9a9" stroke-width="1.51"/><path d="M2050,1285L2151,1084L1981,1116Z" fill="#585858" stroke="#585858" stroke-width="1.51"/><path d="M2273,1006L2297,849L2052,887Z" fill="#636363" stroke="#636363" stroke-width="1.51"/><path d="M1946,1312L2050,1285L1981,1116Z" fill="#565656" stroke="#565656" stroke-width="1.51"/><path d="M2199,1251L2050,1285L1946,1312Z" fill="#505050" stroke="#505050" stroke-width="1.51"/><path d="M-41,19L-178,112L-69,293Z" fill="#e8e8e8" stroke="#e8e8e8" stroke-width="1.51"/><path d="M-151,272L-242,-1L-223,527Z" fill="#e6e6e6" stroke="#e6e6e6" stroke-width="1.51"/><path d="M-242,-1L-178,112L-41,19Z" fill="#ededed" stroke="#ededed" stroke-width="1.51"/><path d="M-201,804L-214,963L-66,982Z" fill="#bcbcbc" stroke="#bcbcbc" stroke-width="1.51"/><path d="M-255,1116L-214,963L-201,804Z" fill="#bababa" stroke="#bababa" stroke-width="1.51"/><path d="M2297,849L2233,613L2208,765Z" fill="#6f6f6f" stroke="#6f6f6f" stroke-width="1.51"/><path d="M2297,849L2269,425L2233,613Z" fill="#777777" stroke="#777777" stroke-width="1.51"/><path d="M2233,613L2269,425L2091,543Z" fill="#7d7d7d" stroke="#7d7d7d" stroke-width="1.51"/><path d="M2152,-26L2038,96L2155,164Z" fill="#929292" stroke="#929292" stroke-width="1.51"/><path d="M2152,-26L1909,-117L2026,67Z" fill="#9a9a9a" stroke="#9a9a9a" stroke-width="1.51"/><path d="M1909,-117L2005,-226L1764,-182Z" fill="#a6a6a6" stroke="#a6a6a6" stroke-width="1.51"/><path d="M2283,41L2155,164L2198,239Z" fill="#8b8b8b" stroke="#8b8b8b" stroke-width="1.51"/><path d="M2283,41L2152,-26L2155,164Z" fill="#8e8e8e" stroke="#8e8e8e" stroke-width="1.51"/><path d="M73,-153L-36,-207L33,-66Z" fill="#f0f0f0" stroke="#f0f0f0" stroke-width="1.51"/><path d="M204,-200L-36,-207L73,-153Z" fill="#f0f0f0" stroke="#f0f0f0" stroke-width="1.51"/><path d="M-176,-240L760,-217L947,-238Z" fill="#e6e6e6" stroke="#e6e6e6" stroke-width="1.51"/><path d="M2273,1006L2052,887L2153,1041Z" fill="#606060" stroke="#606060" stroke-width="1.51"/><path d="M2273,1006L2153,1041L2270,1119Z" fill="#5a5a5a" stroke="#5a5a5a" stroke-width="1.51"/><path d="M2270,1119L2153,1041L2151,1084Z" fill="#585858" stroke="#585858" stroke-width="1.51"/><path d="M-223,527L-255,1116L-201,804Z" fill="#c6c6c6" stroke="#c6c6c6" stroke-width="1.51"/><path d="M-214,963L-255,1116L-53,1112Z" fill="#b2b2b2" stroke="#b2b2b2" stroke-width="1.51"/><path d="M2152,-26L2115,-205L1909,-117Z" fill="#9c9c9c" stroke="#9c9c9c" stroke-width="1.51"/><path d="M2206,-124L2115,-205L2152,-26Z" fill="#979797" stroke="#979797" stroke-width="1.51"/><path d="M2050,1285L2199,1251L2151,1084Z" fill="#525252" stroke="#525252" stroke-width="1.51"/><path d="M1716,1372L2199,1251L1946,1312Z" fill="#535353" stroke="#535353" stroke-width="1.51"/><path d="M2199,1251L2270,1119L2151,1084Z" fill="#535353" stroke="#535353" stroke-width="1.51"/><path d="M2273,1006L2270,1119L2297,849Z" fill="#5e5e5e" stroke="#5e5e5e" stroke-width="1.51"/><path d="M-36,-207L-242,-1L-41,19Z" fill="#f0f0f0" stroke="#f0f0f0" stroke-width="1.51"/><path d="M-178,112L-242,-1L-151,272Z" fill="#ebebeb" stroke="#ebebeb" stroke-width="1.51"/><path d="M-223,527L-242,-1L-255,1116Z" fill="#dbdbdb" stroke="#dbdbdb" stroke-width="1.51"/><path d="M2297,849L2283,41L2269,425Z" fill="#818181" stroke="#818181" stroke-width="1.51"/><path d="M2269,425L2283,41L2198,239Z" fill="#888888" stroke="#888888" stroke-width="1.51"/><path d="M2283,41L2206,-124L2152,-26Z" fill="#929292" stroke="#929292" stroke-width="1.51"/><path d="M-255,1116L-248,1282L-65,1238Z" fill="#a7a7a7" stroke="#a7a7a7" stroke-width="1.51"/><path d="M-65,1238L-248,1282L330,1336Z" fill="#9c9c9c" stroke="#9c9c9c" stroke-width="1.51"/><path d="M330,1336L-248,1282L687,1378Z" fill="#929292" stroke="#929292" stroke-width="1.51"/><path d="M-36,-207L-176,-240L-242,-1Z" fill="#f5f5f5" stroke="#f5f5f5" stroke-width="1.51"/><path d="M1644,-292L-176,-240L947,-238Z" fill="#dfdfdf" stroke="#dfdfdf" stroke-width="1.51"/><path d="M2283,41L2202,-259L2206,-124Z" fill="#959595" stroke="#959595" stroke-width="1.51"/><path d="M2206,-124L2202,-259L2115,-205Z" fill="#999999" stroke="#999999" stroke-width="1.51"/><path d="M2115,-205L2202,-259L2005,-226Z" fill="#9d9d9d" stroke="#9d9d9d" stroke-width="1.51"/><path d="M2005,-226L2202,-259L1644,-292Z" fill="#a6a6a6" stroke="#a6a6a6" stroke-width="1.51"/></svg>