<svg width="511" height="511" xmlns="http://www.w3.org/2000/svg">

 <g>
  <title>background</title>
  <rect fill="none" id="canvas_background" height="402" width="582" y="-1" x="-1"/>
 </g>
 <g>
  <title>Layer 1</title>
  <g id="svg_1">
   <g id="svg_2">
    <path id="svg_3" fill="#F5F4F7" d="m7.5,295.5c0,0 88,-136 248,-136s248,136 248,136s-88,136 -248,136s-248,-136 -248,-136z"/>
    <path id="svg_4" fill="#EBE8EF" d="m255.5,399.5c-125.797,0 -207.073,-84.057 -236.079,-120c-7.886,9.772 -11.921,16 -11.921,16s88,136 248,136s248,-136 248,-136s-4.035,-6.228 -11.921,-16c-29.006,35.943 -110.282,120 -236.079,120z"/>
   </g>
   <path id="svg_9" d="m509.797,291.426c-0.925,-1.43 -23.138,-35.398 -65.578,-69.755c-24.945,-20.194 -51.726,-36.293 -79.596,-47.849c-34.923,-14.48 -71.637,-21.822 -109.123,-21.822s-74.2,7.342 -109.123,21.822c-27.871,11.556 -54.651,27.654 -79.597,47.849c-42.44,34.356 -64.653,68.325 -65.578,69.755c-1.604,2.479 -1.604,5.669 0,8.148c0.925,1.43 23.137,35.398 65.578,69.755c24.946,20.194 51.726,36.293 79.597,47.849c34.923,14.48 71.637,21.822 109.123,21.822c25.101,0 50.024,-3.31 74.079,-9.838c3.998,-1.085 6.359,-5.205 5.274,-9.202c-1.085,-3.999 -5.209,-6.359 -9.202,-5.274c-22.775,6.18 -46.377,9.314 -70.151,9.314c-80.249,0 -141.571,-35.896 -178.883,-66.008c-32.382,-26.134 -52.85,-52.585 -59.984,-62.492c7.138,-9.911 27.605,-36.36 59.984,-62.492c37.312,-30.112 98.634,-66.008 178.883,-66.008c80.248,0 141.571,35.896 178.883,66.008c32.382,26.134 52.85,52.584 59.984,62.491c-11.611,16.109 -58.544,75.961 -135.612,107.873c-3.827,1.585 -5.645,5.972 -4.061,9.799c1.585,3.826 5.97,5.646 9.799,4.061c48.835,-20.222 85.683,-51.057 107.995,-73.363c24.212,-24.206 36.785,-43.485 37.309,-44.294c1.604,-2.48 1.604,-5.67 0,-8.149z"/>
   <path id="svg_11" d="m255.5,264c-17.369,0 -31.5,14.131 -31.5,31.5s14.131,31.5 31.5,31.5s31.5,-14.131 31.5,-31.5s-14.131,-31.5 -31.5,-31.5zm0,48c-9.098,0 -16.5,-7.402 -16.5,-16.5s7.402,-16.5 16.5,-16.5c9.098,0 16.5,7.402 16.5,16.5s-7.402,16.5 -16.5,16.5z"/>
   <path id="svg_12" d="m255.5,111c4.143,0 7.5,-3.357 7.5,-7.5l0,-24c0,-4.143 -3.357,-7.5 -7.5,-7.5c-4.142,0 -7.5,3.357 -7.5,7.5l0,24c0,4.143 3.358,7.5 7.5,7.5z"/>
   <path id="svg_13" d="m153.005,132.973c2.204,3.818 7.388,4.904 10.946,2.287c3.037,-2.234 3.928,-6.525 2.045,-9.787l-12,-20.784c-2.071,-3.588 -6.658,-4.815 -10.245,-2.745c-3.587,2.071 -4.816,6.658 -2.745,10.245l11.999,20.784z"/>
   <path id="svg_14" d="m347.75,135.718c3.543,2.045 8.204,0.793 10.245,-2.745l12,-20.784c2.071,-3.587 0.842,-8.174 -2.745,-10.245c-3.587,-2.07 -8.175,-0.843 -10.245,2.745l-12,20.784c-2.072,3.587 -0.842,8.174 2.745,10.245z"/>
   <g stroke="null" id="svg_24">
    <g stroke="null" transform="matrix(0.5056706253784895,0,0,0.5056706253784895,-2789.099202134716,-2800.5498530745276) " id="svg_19">
     <path stroke="null" id="svg_20" d="m6266.213366,6121.765269c0,-32.5 -40.7,-63.3 -103.1,-82.4c14.4,-63.6 8,-114.2 -20.2,-130.4c-6.5,-3.8 -14.1,-5.6 -22.4,-5.6l0,22.3c4.6,0 8.3,0.9 11.4,2.6c13.6,7.8 19.5,37.5 14.9,75.7c-1.1,9.4 -2.9,19.3 -5.1,29.4c-19.6,-4.8 -41,-8.5 -63.5,-10.9c-13.5,-18.5 -27.5,-35.3 -41.6,-50c32.6,-30.3 63.2,-46.9 84,-46.9l0,-22.3c0,0 0,0 0,0c-27.5,0 -63.5,19.6 -99.9,53.6c-36.4,-33.8 -72.4,-53.2 -99.9,-53.2l0,22.3c20.7,0 51.4,16.5 84,46.6c-14,14.7 -28,31.4 -41.3,49.9c-22.6,2.4 -44,6.1 -63.6,11c-2.3,-10 -4,-19.7 -5.2,-29c-4.7,-38.2 1.1,-67.9 14.6,-75.8c3,-1.8 6.9,-2.6 11.5,-2.6l0,-22.3c0,0 0,0 0,0c-8.4,0 -16,1.8 -22.6,5.6c-28.1,16.2 -34.4,66.7 -19.9,130.1c-62.2,19.2 -102.7,49.9 -102.7,82.3c0,32.5 40.7,63.3 103.1,82.4c-14.4,63.6 -8,114.2 20.2,130.4c6.5,3.8 14.1,5.6 22.5,5.6c27.5,0 63.5,-19.6 99.9,-53.6c36.4,33.8 72.4,53.2 99.9,53.2c8.4,0 16,-1.8 22.6,-5.6c28.1,-16.2 34.4,-66.7 19.9,-130.1c62,-19.1 102.5,-49.9 102.5,-82.3zm-130.2,-66.7c-3.7,12.9 -8.3,26.2 -13.5,39.5c-4.1,-8 -8.4,-16 -13.1,-24c-4.6,-8 -9.5,-15.8 -14.4,-23.4c14.2,2.1 27.9,4.7 41,7.9zm-45.8,106.5c-7.8,13.5 -15.8,26.3 -24.1,38.2c-14.9,1.3 -30,2 -45.2,2c-15.1,0 -30.2,-0.7 -45,-1.9c-8.3,-11.9 -16.4,-24.6 -24.2,-38c-7.6,-13.1 -14.5,-26.4 -20.8,-39.8c6.2,-13.4 13.2,-26.8 20.7,-39.9c7.8,-13.5 15.8,-26.3 24.1,-38.2c14.9,-1.3 30,-2 45.2,-2c15.1,0 30.2,0.7 45,1.9c8.3,11.9 16.4,24.6 24.2,38c7.6,13.1 14.5,26.4 20.8,39.8c-6.3,13.4 -13.2,26.8 -20.7,39.9zm32.3,-13c5.4,13.4 10,26.8 13.8,39.8c-13.1,3.2 -26.9,5.9 -41.2,8c4.9,-7.7 9.8,-15.6 14.4,-23.7c4.6,-8 8.9,-16.1 13,-24.1zm-101.4,106.7c-9.3,-9.6 -18.6,-20.3 -27.8,-32c9,0.4 18.2,0.7 27.5,0.7c9.4,0 18.7,-0.2 27.8,-0.7c-9,11.7 -18.3,22.4 -27.5,32zm-74.4,-58.9c-14.2,-2.1 -27.9,-4.7 -41,-7.9c3.7,-12.9 8.3,-26.2 13.5,-39.5c4.1,8 8.4,16 13.1,24c4.7,8 9.5,15.8 14.4,23.4zm73.9,-208.1c9.3,9.6 18.6,20.3 27.8,32c-9,-0.4 -18.2,-0.7 -27.5,-0.7c-9.4,0 -18.7,0.2 -27.8,0.7c9,-11.7 18.3,-22.4 27.5,-32zm-74,58.9c-4.9,7.7 -9.8,15.6 -14.4,23.7c-4.6,8 -8.9,16 -13,24c-5.4,-13.4 -10,-26.8 -13.8,-39.8c13.1,-3.1 26.9,-5.8 41.2,-7.9zm-90.5,125.2c-35.4,-15.1 -58.3,-34.9 -58.3,-50.6c0,-15.7 22.9,-35.6 58.3,-50.6c8.6,-3.7 18,-7 27.7,-10.1c5.7,19.6 13.2,40 22.5,60.9c-9.2,20.8 -16.6,41.1 -22.2,60.6c-9.9,-3.1 -19.3,-6.5 -28,-10.2zm53.8,142.9c-13.6,-7.8 -19.5,-37.5 -14.9,-75.7c1.1,-9.4 2.9,-19.3 5.1,-29.4c19.6,4.8 41,8.5 63.5,10.9c13.5,18.5 27.5,35.3 41.6,50c-32.6,30.3 -63.2,46.9 -84,46.9c-4.5,-0.1 -8.3,-1 -11.3,-2.7zm237.2,-76.2c4.7,38.2 -1.1,67.9 -14.6,75.8c-3,1.8 -6.9,2.6 -11.5,2.6c-20.7,0 -51.4,-16.5 -84,-46.6c14,-14.7 28,-31.4 41.3,-49.9c22.6,-2.4 44,-6.1 63.6,-11c2.3,10.1 4.1,19.8 5.2,29.1zm38.5,-66.7c-8.6,3.7 -18,7 -27.7,10.1c-5.7,-19.6 -13.2,-40 -22.5,-60.9c9.2,-20.8 16.6,-41.1 22.2,-60.6c9.9,3.1 19.3,6.5 28.1,10.2c35.4,15.1 58.3,34.9 58.3,50.6c-0.1,15.7 -23,35.6 -58.4,50.6z" fill="#61DAFB"/>
     <polygon stroke="null" id="svg_21" points="5920.713284730911,5903.66552734375 5920.713284730911,5903.66552734375 5920.713284730911,5903.66552734375 " fill="#61DAFB"/>
     <circle stroke="null" id="svg_22" r="45.700001" cy="6121.765269" cx="6020.813366" fill="#61DAFB"/>
     <polygon stroke="null" id="svg_23" points="6120.413480043411,5903.36572265625 6120.413480043411,5903.36572265625 6120.413480043411,5903.36572265625 " fill="#61DAFB"/>
    </g>
   </g>
  </g>
 </g>
</svg>